<?xml version="1.0" encoding="UTF-8" standalone="no"?>
<svg width="100px" height="110px" viewBox="0 0 214 224" version="1.1" xmlns="http://www.w3.org/2000/svg" xmlns:xlink="http://www.w3.org/1999/xlink">
    <!-- Generator: Sketch 3.7.2 (28276) - http://www.bohemiancoding.com/sketch -->
    <title>old style</title>
    <desc>Created with Sketch.</desc>
    <defs></defs>
    <g id="Page-2" stroke="none" stroke-width="1" fill="none" fill-rule="evenodd">
        <g id="iPhone-6-Plus" transform="translate(-100.000000, -376.000000)" fill="#821415">
            <g id="old-style" transform="translate(102.000000, 378.000000)">
                <path d="M29,7 L29,70.9599613 C11.0320099,73.8312351 0,77.7193003 0,82 C0,90.836556 47.0101013,98 105,98 C162.989899,98 210,90.836556 210,82 C210,77.1882191 196.060834,72.8725398 174,69.9394382 L174,69.9394382 L174,7 C174,3.13400675 141.540644,0 101.5,0 C61.4593556,0 29,3.13400675 29,7 L29,7 Z" id="Combined-Shape" stroke="#CE6A21" stroke-width="3"></path>
                <path d="M81.8517093,203.090757 C114.311421,185.597706 150.591219,188.008029 162.884904,204.396792 C175.17859,219.519299 160.082943,221.001752 129.167835,206.136413 C98.2527262,188.268951 61.9729292,186.089973 48.1346401,205.163258 C34.296351,225.535311 49.3919971,223.821513 81.8517093,203.090757 Z" id="Oval-2" stroke="#D56D22" stroke-width="3"></path>
                <path d="M87.9677232,142.5 C87.1824046,127.864454 73.5415403,116 57.5,116 C41.4584597,116 27.8175954,127.864454 27.0322768,142.5 C26.2469583,157.135546 39.8878226,169 57.5,169 C75.1121774,169 88.7530417,157.135546 87.9677232,142.5 Z" id="Oval-3" stroke="#D86F23" stroke-width="4"></path>
            </g>
        </g>
    </g>
</svg>
